<svg width="32" height="32" viewBox="0 0 32 32" fill="none" xmlns="http://www.w3.org/2000/svg">
<path d="M16 20C16.7333 20 17.3613 19.7387 17.884 19.216C18.4058 18.6942 18.6666 18.0667 18.6666 17.3334C18.6666 16.6 18.4058 15.972 17.884 15.4494C17.3613 14.9276 16.7333 14.6667 16 14.6667C15.2666 14.6667 14.6391 14.9276 14.1173 15.4494C13.5946 15.972 13.3333 16.6 13.3333 17.3334C13.3333 18.0667 13.5946 18.6942 14.1173 19.216C14.6391 19.7387 15.2666 20 16 20ZM23.4666 26.6667L18.7 21.9C18.3222 22.1445 17.9058 22.3334 17.4506 22.4667C16.9946 22.6 16.5111 22.6667 16 22.6667C14.5333 22.6667 13.2778 22.1445 12.2333 21.1C11.1889 20.0556 10.6666 18.8 10.6666 17.3334C10.6666 15.8667 11.1889 14.6111 12.2333 13.5667C13.2778 12.5222 14.5333 12 16 12C17.4666 12 18.7222 12.5222 19.7666 13.5667C20.8111 14.6111 21.3333 15.8667 21.3333 17.3334C21.3333 17.8445 21.2666 18.3222 21.1333 18.7667C21 19.2111 20.8111 19.6222 20.5666 20L24 23.4334V11.6334L18.7333 5.33335H7.99998V26.6667H23.4666ZM7.99998 29.3334C7.26665 29.3334 6.63909 29.0725 6.11731 28.5507C5.59465 28.028 5.33331 27.4 5.33331 26.6667V5.33335C5.33331 4.60002 5.59465 3.97202 6.11731 3.44935C6.63909 2.92758 7.26665 2.66669 7.99998 2.66669H18.7666C19.1666 2.66669 19.5444 2.75024 19.9 2.91735C20.2555 3.08358 20.5555 3.32224 20.8 3.63335L26.0333 9.93335C26.2111 10.1778 26.3613 10.4445 26.484 10.7334C26.6058 11.0222 26.6666 11.3222 26.6666 11.6334V26.6667C26.6666 27.4 26.4058 28.028 25.884 28.5507C25.3613 29.0725 24.7333 29.3334 24 29.3334H7.99998Z" fill="white"/>
</svg>
