<svg width="30" height="26" viewBox="0 0 30 26" fill="none" xmlns="http://www.w3.org/2000/svg">
<path d="M30 5C30 4.6 29.8 4.3 29.5 4.1L22.5 0.0999999C22.3 -9.68575e-08 22.2 0 22 0C21.8 0 21.7 -9.68575e-08 21.5 0.0999999L15 3.8L8.5 0.0999999C8.3 -9.68575e-08 8.2 0 8 0C7.8 0 7.7 -9.68575e-08 7.5 0.0999999L0.5 4.1C0.2 4.3 0 4.6 0 5V25C0 25.6 0.4 26 1 26C1.2 26 1.3 25.9 1.5 25.9L8 22.2L14.5 25.9C14.7 26 14.8 26 15 26C15.2 26 15.3 26 15.5 25.9L22 22.2L28.5 25.9C28.6 26 28.8 26 29 26C29.6 26 30 25.6 30 25V5ZM2 5.6L7 2.7V20.4L2 23.3V5.6ZM14 23.3L9 20.4V2.7L14 5.6V23.3ZM21 20.4L16 23.3V5.6L21 2.7V20.4ZM23 20.4V2.7L28 5.6V23.3L23 20.4Z" fill="white"/>
</svg>
